<svg xmlns:xlink="http://www.w3.org/1999/xlink" xmlns="http://www.w3.org/2000/svg" width="146" height="35" viewBox="0 0 146 35" role="img" aria-labelledby="as6yt6emnxw8yum8w38nk4wtlx107u5a" class="site-nav-logo desktop"><title id="as6yt6emnxw8yum8w38nk4wtlx107u5a">thoughtbot.com</title>
  
  <g fill="none" fill-rule="evenodd">
    <circle fill="#FFFFFF" cx="17.5" cy="17.5" r="16.5"></circle>
    <g fill="#E03131" fill-rule="nonzero">
      <path d="M25.077 25.778l-.432-.43a.982.982 0 10-1.187.003l-.433.432c-.348-.29-.57-.785-.57-1.273 0-.392.145-.534.38-1.085h-.193v-4.96h-.277v10.557l.277.267v.75h-4.97v-.75l.67-.353h.157V25.63h-1.655v3.392l.552.267v.846l-4.695.008v-.855l.455-.337-.006-10.488h-.448v4.96h-.256c.236.55.38.692.38 1.084 0 .486-.22.95-.57 1.243l-.43-.418a.967.967 0 00.39-.777.978.978 0 00-.98-.977.984.984 0 00-.984.983c0 .318.152.602.387.78l-.433.433c-.345-.292-.605-.726-.605-1.212 0-.39.34-.75.34-1.027V15.84c0-.296.295-.533.59-.533h14.09c.297 0 .507.238.507.534v7.695c.55.276.445.635.445 1.027 0 .484-.153.92-.498 1.21l.002.005zM14.05 9.094h7.183c.296 0 .582.132.582.427v4.677c0 .294-.286.685-.582.685H14.05c-.293 0-.52-.39-.52-.685V9.52c0-.294.227-.426.52-.426zm6.446-1.52l-.433.616c-.548-.525-1.437-.874-2.418-.874-.985 0-1.877.35-2.425.88l-.432-.617c.684-.616 1.71-1.006 2.857-1.006 1.143 0 2.167.388 2.85 1l.001.001zm-.007-.96c-.745-.563-1.746-.872-2.818-.872-1.073 0-2.073.31-2.817.87-.176.134-.33.276-.465.427l-.436-.622C14.794 5.558 16.147 5 17.672 5c1.49 0 2.813.532 3.658 1.358l-.434.618a3.12 3.12 0 00-.407-.363v.001zM17.644 3.49c1.846 0 3.488.662 4.53 1.69l-.43.612c-.894-.94-2.398-1.56-4.1-1.56-1.706 0-3.214.62-4.107 1.566l-.43-.614c1.042-1.03 2.686-1.694 4.537-1.694zM17.642.077C8.022.077.225 7.857.225 17.46c0 9.598 7.798 17.38 17.417 17.38 9.62 0 17.417-7.782 17.417-17.38C35.06 7.857 27.26.076 17.64.076l.002.001z" fill="#E03131"></path>
      <path d="M15.812 11.97a.466.466 0 110-.934.468.468 0 110 .934zm0-1.38a.914.914 0 10.914.913.914.914 0 00-.915-.913h.001zm3.671 1.38a.468.468 0 11.001-.935.468.468 0 01-.001.935zm0-1.38a.915.915 0 00-.916.913.915.915 0 001.831 0 .914.914 0 00-.915-.913z" fill="#E03131"></path>
    </g>
    <path d="M61.728 23.69h-2.406v-5.67c0-1.06-.17-1.832-.51-2.313-.34-.482-.916-.722-1.725-.722-.965 0-1.71.346-2.236 1.04v7.665h-2.405V7.765h2.406v6.116c.74-.622 1.563-.934 2.47-.934 2.94 0 4.408 1.692 4.408 5.075v5.67m1.72-5.267c0-.765.126-1.483.374-2.156a5.04 5.04 0 011.065-1.742 4.965 4.965 0 011.68-1.157c.66-.282 1.395-.424 2.204-.424.81 0 1.54.142 2.193.425a4.94 4.94 0 011.672 1.17 5.34 5.34 0 011.074 1.74c.256.665.383 1.38.383 2.145 0 .764-.124 1.48-.372 2.144a5.222 5.222 0 01-1.065 1.74 4.89 4.89 0 01-1.682 1.168c-.66.283-1.395.425-2.204.425-.823 0-1.56-.142-2.214-.425a5.007 5.007 0 01-1.67-1.157 5.04 5.04 0 01-1.066-1.73 6.15 6.15 0 01-.373-2.165l.001-.001zm2.47 0c0 1.06.253 1.903.757 2.526.504.624 1.203.935 2.097.935.895 0 1.594-.31 2.098-.934.503-.622.755-1.464.755-2.525 0-1.062-.252-1.9-.755-2.517-.504-.615-1.203-.923-2.098-.923-.894 0-1.593.308-2.097.923-.504.616-.756 1.455-.756 2.517l-.001-.002zm19.055 5.265H82.76l-.105-.785a3.581 3.581 0 01-2.534.998c-2.866 0-4.3-1.65-4.3-4.948v-5.818h2.406v5.648c0 1.062.178 1.837.532 2.326.355.49.916.733 1.682.733.937 0 1.647-.325 2.13-.977v-7.73h2.405V23.69m6.57 5.31c-.824 0-1.547-.086-2.172-.256-.625-.17-1.143-.4-1.554-.69a3.106 3.106 0 01-.937-.998 2.392 2.392 0 01-.32-1.2c0-1.033.597-1.82 1.79-2.357-.668-.37-1.002-.857-1.002-1.466 0-.637.37-1.132 1.108-1.486-1.12-.78-1.682-1.918-1.682-3.42 0-.593.1-1.15.3-1.665.197-.517.48-.96.85-1.328.37-.368.82-.658 1.352-.87.532-.212 1.132-.32 1.8-.32.95 0 1.78.228 2.49.68.682-.34 1.47-.51 2.364-.51h.532l-.19 1.55h-.81c-.242 0-.512.022-.81.065.497.693.745 1.486.745 2.378 0 .566-.096 1.1-.288 1.603-.19.504-.472.946-.84 1.328-.37.382-.82.683-1.353.903-.533.22-1.133.33-1.8.33-.44 0-.852-.043-1.235-.128-.213.113-.32.255-.32.425 0 .127.047.234.14.318.09.085.244.163.457.234.213.07.5.137.862.2.362.065.82.132 1.374.202.468.07.95.163 1.447.277.497.112.95.282 1.363.508a3.11 3.11 0 011.022.892c.27.368.42.842.447 1.422 0 1.02-.447 1.837-1.34 2.453-.896.616-2.16.924-3.79.924V29zm-.47-14.228c-.68 0-1.202.213-1.564.637-.362.424-.543.997-.543 1.72 0 .72.184 1.295.553 1.72.37.424.894.636 1.576.636.68 0 1.202-.216 1.563-.647.362-.433.544-1.01.544-1.732s-.185-1.292-.554-1.71c-.37-.417-.894-.626-1.576-.626l.001.002zm.576 9.534l-1.47-.212c-.453.14-.822.346-1.106.615a1.27 1.27 0 00-.426.955c0 .48.25.867.745 1.157.497.29 1.193.436 2.087.436.894 0 1.614-.142 2.16-.425.547-.283.82-.65.82-1.104 0-.412-.24-.72-.723-.925-.484-.205-1.18-.37-2.088-.5l.001.003zm29.668-.403c-1.092 0-2.03-.347-2.81-1.04l-.085.827h-2.235V7.765h2.406v6.094c.695-.61 1.604-.914 2.725-.914.767 0 1.463.142 2.088.425.624.284 1.156.67 1.596 1.158.44.49.78 1.07 1.022 1.74a6.33 6.33 0 01.362 2.157c0 .764-.117 1.48-.35 2.144a5.2 5.2 0 01-1.012 1.74c-.44.496-.973.885-1.597 1.168-.626.283-1.328.425-2.11.425v.001zm-.19-8.918c-.824 0-1.47.304-1.938.913-.47.608-.703 1.45-.703 2.527 0 1.104.233 1.957.702 2.558.468.602 1.114.902 1.937.902.85 0 1.53-.32 2.033-.966.504-.645.755-1.476.755-2.495 0-1.02-.248-1.848-.745-2.485-.496-.637-1.178-.955-2.044-.955l.003.001zm-14.114 8.705h-2.406v-5.67c0-1.06-.17-1.832-.51-2.313-.342-.482-.917-.722-1.726-.722-.965 0-1.71.346-2.235 1.04v7.665h-2.407V7.765h2.406v6.116c.737-.622 1.56-.934 2.47-.934 2.937 0 4.406 1.692 4.406 5.075v5.67m7.379-1.764l-.213 1.975h-1.83c-.47 0-.88-.07-1.236-.213a2.482 2.482 0 01-.884-.573 2.25 2.25 0 01-.52-.85 3.163 3.163 0 01-.172-1.06V15.09h-1.597l.214-1.953h1.384V10l2.406-.254v3.39h2.47v1.955h-2.47v5.012c0 .44.014.782.043 1.03.028.247.1.428.213.54.113.115.29.185.532.213.24.03.575.043 1 .043h.66m13.281-3.504c0-.765.124-1.483.373-2.156a5.052 5.052 0 011.064-1.742 5.007 5.007 0 011.683-1.157c.66-.282 1.395-.424 2.204-.424.81 0 1.54.142 2.193.425.653.284 1.21.673 1.67 1.17.463.494.82 1.075 1.077 1.74a5.94 5.94 0 01.383 2.145c0 .764-.124 1.48-.373 2.144a5.188 5.188 0 01-1.064 1.74 4.89 4.89 0 01-1.682 1.168c-.66.283-1.394.425-2.203.425-.823 0-1.56-.142-2.214-.425a5.036 5.036 0 01-1.672-1.157 5.079 5.079 0 01-1.063-1.73 6.105 6.105 0 01-.373-2.165l-.003-.001zm2.47 0c0 1.06.252 1.903.756 2.526.504.624 1.203.935 2.097.935.894 0 1.593-.31 2.097-.934.504-.622.756-1.464.756-2.525 0-1.062-.252-1.9-.756-2.517-.504-.615-1.203-.923-2.097-.923-.894 0-1.593.308-2.097.923-.504.616-.756 1.455-.756 2.517v-.002zm14.946 3.503l-.213 1.975h-1.83c-.47 0-.88-.07-1.236-.213a2.478 2.478 0 01-.883-.573 2.25 2.25 0 01-.52-.85 3.163 3.163 0 01-.172-1.06V15.09h-1.597l.213-1.953h1.385V10l2.406-.254v3.39h2.47v1.955h-2.47v5.012c0 .44.015.782.044 1.03.028.247.1.428.213.54.113.115.29.185.532.213.24.03.574.043 1 .043h.66m-94.369-.001l-.213 1.975h-1.83c-.47 0-.88-.07-1.236-.213a2.482 2.482 0 01-.884-.573 2.28 2.28 0 01-.522-.85 3.214 3.214 0 01-.17-1.06V15.09H44.27l.214-1.953h1.384V10l2.406-.254v3.39h2.47v1.955h-2.47v5.012c0 .44.014.782.043 1.03.028.247.1.428.213.54.113.115.29.185.532.213.24.03.575.043 1 .043h.66" fill="#E03131" fill-rule="nonzero"></path>
  </g>
</svg>